<svg width="1081" height="88" viewBox="0 0 1081 88" fill="none" xmlns="http://www.w3.org/2000/svg">
<g clip-path="url(#clip0_54_48)">
<path fill-rule="evenodd" clip-rule="evenodd" d="M8.93939 55.7576L13.5354 43.2324L17.9293 55.7576H8.93939ZM22.4242 68.3839H26.6667L15.7071 38.1819H11.5152L0 68.3839H4.29293L7.67677 59.1415H19.1919L22.4242 68.3839ZM35.8586 57.9294C31.9192 57.0708 27.8788 56.1617 27.8788 51.4142C27.8788 47.2728 31.4141 44.6465 36.7172 44.6465C40.1515 44.6465 43.4343 45.9092 45.0505 49.0405L41.4646 50.5051C41.1616 49.6465 39.3434 47.5758 36.2626 47.5758C33.2323 47.5758 31.7172 49.3435 31.7172 50.9092C31.7172 53.0809 34.596 53.99 37.0202 54.495C42.0707 55.5051 46.5152 56.8182 46.5152 61.6162C46.5152 65.3536 43.2323 68.8384 36.9192 68.8384C32.2727 68.8384 28.9899 67.2728 27.3737 64.0405L31.4646 63.3334C32.4747 65.1011 34.3434 65.8586 37.0707 65.8586C40.5051 65.8586 42.4747 64.5455 42.4747 62.0708C42.5253 59.495 39.2424 58.6869 35.8586 57.9294V57.9294ZM55 45.3536H59.1919V48.5859H55V61.6162C55 64.3435 55 65.5051 56.6667 65.5051C57.3737 65.5051 58.4343 65.2021 59.1919 64.9496V68.1314C58.5354 68.2324 56.9192 68.5354 55.4546 68.5354C51.0101 68.5354 51.0101 66.3637 51.0606 63.3839V48.5859H47.4242V45.3536H51.0606V39.8991L55.0505 38.2324V45.3536H55ZM66.5152 45.4041V49.495C68.6869 45.1516 72.8283 45.0506 74.3434 45.0001V48.99C70.5556 49.0405 68.6869 49.798 67.4748 51.8182C66.4647 53.4849 66.5152 55.8081 66.5152 57.7778V68.3334H62.6768V45.4041H66.5152ZM118.889 38.1819V41.9698L101.818 64.7475H119.343V68.3839H97.1717V64.4445L114.343 41.9193H97.1717V38.1819H118.889ZM147.273 45.6061V48.9395C149.394 45.2021 153.081 44.8486 154.444 44.8486C157.374 44.8486 160.859 46.3132 161.97 50.1011C162.374 51.4647 162.374 52.8789 162.374 54.798V68.3839H158.535V55.4041C158.535 53.0809 158.535 52.4243 158.283 51.6162C157.626 49.4445 155.455 48.4849 153.384 48.4849C151.667 48.4849 150.202 49.0405 148.99 50.2021C147.273 51.9193 147.273 53.6364 147.273 55.3536V68.3839H143.434V45.6061H147.273ZM206.667 64.293C205.253 66.5657 202.626 68.8384 197.929 68.8384C189.798 68.8384 186.768 62.5758 186.768 56.9698C186.768 50.5051 190.303 44.596 197.626 44.596C200.505 44.596 204.495 45.4546 206.717 49.1415L203.131 50.6566C202.475 49.1415 200.96 47.4243 197.778 47.4243C191.465 47.4243 191.061 54.6465 191.061 56.6667C191.061 64.2425 195.404 65.8586 197.98 65.8586C200.96 65.8586 202.475 64.4445 203.283 62.8789L206.667 64.293ZM124.848 54.5455H137.02C136.667 48.5354 133.232 47.5253 130.909 47.5253C127.576 47.5253 125.253 49.9496 124.848 54.5455ZM140.152 64.0405C138.838 66.2627 136.313 68.8384 131.313 68.8384C124.545 68.8384 120.657 64.2425 120.657 56.5152C120.657 47.8789 126.364 44.596 131.162 44.596C135.354 44.596 139.394 46.9193 140.758 52.6768C141.212 54.596 141.212 56.3637 141.212 57.3233H124.747C124.646 61.1617 126.263 66.0102 131.667 65.9092C133.889 65.8586 135.455 64.8485 136.414 63.2829L140.152 64.0405ZM168.586 54.5455H180.758C180.404 48.5354 176.97 47.5253 174.646 47.5253C171.364 47.5253 169.04 49.9496 168.586 54.5455ZM183.939 64.0405C182.626 66.2627 180.101 68.8384 175.101 68.8384C168.333 68.8384 164.444 64.2425 164.444 56.5152C164.444 47.8789 170.152 44.596 174.95 44.596C179.141 44.596 183.182 46.9193 184.545 52.6768C185 54.596 185 56.3637 185 57.3233H168.535C168.434 61.1617 170.051 66.0102 175.455 65.9092C177.677 65.8586 179.242 64.8485 180.202 63.2829L183.939 64.0405ZM227.677 68.3839H223.687C223.687 68.3839 223.333 66.7677 223.232 65.0001C222.071 66.2122 219.899 68.6869 215.556 68.6869C211.111 68.6869 207.778 66.0607 207.778 62.1718C207.778 60.9597 208.131 59.7475 208.788 58.7374C210.101 56.8182 212.525 55.2526 219.343 54.697L222.98 54.394V53.7879C222.98 51.4142 222.98 47.4243 217.879 47.4243C214.646 47.4243 213.586 48.99 213.182 50.4041L209.646 48.9395C209.697 48.7879 209.747 48.6869 209.848 48.5859C211.212 46.0607 213.889 44.495 217.727 44.495C219.849 44.495 222.626 45.0506 224.394 46.4142C226.97 48.3334 226.869 52.1718 226.869 52.1718L227.02 63.9395C227.071 64.0405 227.222 67.4243 227.677 68.3839V68.3839ZM222.424 62.0708C223.03 60.8081 223.03 60.2526 223.03 56.9193C221.515 57.1718 219.495 57.4748 217.02 57.9799C212.778 58.889 212.02 60.5051 212.02 62.1213C212.02 63.9395 213.485 65.5051 216.313 65.5051C219.04 65.5051 221.313 64.4445 222.424 62.0708V62.0708ZM94.3939 68.3839H90.404C90.404 68.3839 90.0505 66.7677 89.9495 65.0001C88.7879 66.2122 86.6162 68.6869 82.2727 68.6869C77.8283 68.6869 74.495 66.0607 74.495 62.1718C74.495 60.9597 74.8485 59.7475 75.5051 58.7374C76.8182 56.8182 79.2424 55.2526 86.0606 54.697L89.697 54.394V53.7879C89.697 51.4142 89.697 47.4243 84.596 47.4243C81.3636 47.4243 80.303 48.99 79.899 50.4041L76.3636 48.9395C76.4141 48.8385 76.4647 48.6869 76.5657 48.5859C77.9293 46.0607 80.6061 44.495 84.4444 44.495C86.5657 44.495 89.3434 45.0506 91.1111 46.4142C93.6869 48.3334 93.5859 52.1718 93.5859 52.1718L93.7374 63.9395C93.7879 64.0405 93.9394 67.4243 94.3939 68.3839V68.3839ZM89.1414 62.0708C89.7475 60.8081 89.7475 60.2526 89.7475 56.9193C88.2323 57.1718 86.2121 57.4748 83.7374 57.9799C79.495 58.889 78.7374 60.5051 78.7374 62.1213C78.7374 63.9395 80.202 65.5051 83.0303 65.5051C85.7576 65.5051 88.0303 64.4445 89.1414 62.0708V62.0708Z" fill="#E5E4F5"/>
<path fill-rule="evenodd" clip-rule="evenodd" d="M280.303 36.6162C280.303 36.4647 280.253 36.3132 280.253 36.2122C280.202 35.9091 280.101 35.6566 280 35.4041C279.899 35.1011 279.747 34.8485 279.596 34.596C279.444 34.293 279.242 34.0404 279.04 33.7374C278.939 33.5859 278.788 33.4344 278.636 33.2829C278.485 33.1314 278.333 32.9798 278.131 32.8283C277.727 32.5253 277.374 32.2223 276.919 31.9192C275.96 31.3637 275.05 30.7576 274.04 30.3031C272.828 29.7475 271.667 29.1415 270.404 28.6869L262.02 25.7576C262.02 24.1415 262.071 22.5758 262.02 20.9596C261.97 18.5859 261.818 16.2122 261.667 13.8384C261.515 12.1718 261.364 10.5556 261.061 8.88894C260.859 7.62631 260.556 6.36369 260.252 5.10106C260.202 4.79803 260.101 4.54551 260 4.24248C259.848 3.73743 259.646 3.28288 259.394 2.82834C259.192 2.4748 258.99 2.12126 258.737 1.76773C258.434 1.36369 258.081 1.01015 257.677 0.757629C257.475 0.606113 257.222 0.454598 257.02 0.353588C256.818 0.252578 256.616 0.202073 256.414 0.151568C256.111 0.0505581 255.808 0.0505581 255.455 5.30161e-05C254.697 -0.050452 253.99 0.0505581 253.283 0.303083C253.03 0.404093 252.778 0.505103 252.525 0.656618C251.97 0.959649 251.414 1.31318 250.859 1.66672C250.404 2.02025 249.899 2.37379 249.495 2.77783C247.727 4.4445 246.01 6.11116 244.293 7.82833C243.384 8.73742 242.525 9.69702 241.717 10.7071C238.485 14.6465 235.253 18.5859 232.121 22.6263C230.758 24.394 229.495 26.3132 228.182 28.1819C227.879 28.6364 227.576 29.1415 227.273 29.6465C226.818 30.5051 226.313 31.3637 225.909 32.2728C225.808 32.5253 225.707 32.7273 225.606 32.9798C225.505 33.2324 225.455 33.4344 225.404 33.6869C225.303 34.091 225.253 34.5455 225.253 35C225.253 35.1011 225.303 35.2021 225.303 35.3031C225.354 35.4041 225.404 35.5051 225.455 35.6061C225.606 35.8081 225.758 36.0606 225.909 36.2122C226.111 36.4142 226.313 36.6162 226.566 36.8182C226.818 37.0202 227.02 37.1718 227.273 37.3738C227.727 37.6768 228.182 37.9293 228.636 38.1819C228.838 38.2829 229.04 38.3839 229.242 38.4849C229.293 38.5354 229.091 38.4344 229.04 38.3839H229.091L229.444 38.5354C232.222 40 235 41.4142 237.778 42.8788C240.556 44.3435 243.333 45.8586 246.061 47.3738L252.222 50.8586C250.101 52.4748 247.879 54.0404 245.808 55.7071C245 56.3637 244.242 57.0707 243.535 57.7778C242.929 58.3839 242.374 58.9899 241.869 59.6465C241.465 60.1516 241.061 60.7071 240.707 61.2627C240.404 61.7172 240.202 62.1718 239.949 62.6263C239.798 62.9798 239.646 63.3334 239.545 63.7374C239.444 63.9899 239.394 64.293 239.343 64.5455C239.293 64.697 239.293 64.899 239.293 65.0505V65.2021V65.6566C239.343 66.1616 239.444 66.7172 239.697 67.1717C239.747 67.2728 239.798 67.3738 239.899 67.4748C240.05 67.6768 240.202 67.8788 240.354 68.0303C240.505 68.1818 240.707 68.3334 240.909 68.4849C241.111 68.6364 241.313 68.7374 241.515 68.8889C241.717 68.9899 241.97 69.0909 242.172 69.1919C242.374 69.293 242.626 69.394 242.879 69.4445C243.737 69.6465 244.596 69.798 245.505 69.9495C245.909 70 246.364 70.0505 246.818 70C248.333 69.899 249.798 69.7475 251.263 69.495C252.98 69.2425 254.697 68.8384 256.414 68.4849C258.434 68.0303 260.455 67.5758 262.424 67.0707C263.838 66.7172 265.253 66.3637 266.616 65.8081C267.677 65.3536 268.737 64.9495 269.798 64.495C270.05 64.394 270.253 64.2425 270.455 64.1414C270.657 64.0404 270.859 63.8889 271.061 63.7374C271.212 63.6364 271.414 63.4849 271.515 63.3334C271.616 63.2324 271.768 63.0808 271.869 62.9293C272.02 62.6768 272.172 62.4243 272.222 62.1718C272.273 61.9192 272.273 61.6667 272.222 61.4647C272.172 61.2122 272.071 61.0101 271.97 60.8081C271.869 60.6061 271.717 60.4041 271.566 60.2526C271.263 59.9495 270.96 59.6465 270.606 59.4445C270.455 59.3435 270.303 59.2425 270.152 59.1415C269.04 58.4849 267.98 57.8283 266.869 57.1718L262.222 54.4445C265.05 52.5253 267.879 50.6566 270.657 48.7374C271.869 47.9293 273.03 47.0202 274.141 46.1112C275.101 45.3031 276.01 44.495 276.919 43.6364C277.374 43.2324 277.727 42.7778 278.131 42.3233C278.333 42.1213 278.485 41.9192 278.636 41.6667C278.788 41.4647 278.939 41.2627 279.04 41.0606C279.394 40.3536 279.747 39.596 280.05 38.8889C280.151 38.5859 280.202 38.2324 280.303 37.9293C280.354 37.7778 280.353 37.6263 280.353 37.4748C280.353 37.3233 280.353 37.1718 280.353 37.0202C280.353 36.9192 280.303 36.7677 280.303 36.6162V36.6162ZM245.758 17.6768C247.323 16.0607 248.889 14.4445 250.505 12.8283C250.808 12.5253 251.111 12.2728 251.414 12.0203C251.515 11.9192 251.616 11.8182 251.768 11.7677C251.869 11.7172 251.919 11.6162 252.02 11.5657C252.071 11.5152 252.172 11.4647 252.222 11.4647C252.323 11.4142 252.374 11.4142 252.475 11.3637H252.727C252.828 11.3637 252.929 11.4142 252.98 11.4647C253.081 11.5152 253.182 11.6162 253.232 11.6667C253.283 11.7172 253.333 11.7677 253.333 11.8182C253.384 11.8687 253.434 11.9697 253.434 12.0203C253.535 12.2223 253.586 12.4243 253.636 12.6263C253.687 12.9293 253.788 13.2324 253.838 13.5354C253.939 14.293 254.04 15 254.141 15.7576C254.242 16.7172 254.343 17.6768 254.394 18.6364L254.848 23.7374L249.141 22.4243L243.838 21.5657L242.576 21.4647H242.172C243.384 20.2021 244.545 18.9394 245.758 17.6768V17.6768ZM242.172 24.798L242.222 24.7475H242.273H242.323L242.525 24.798L243.03 25L243.737 25.3031C245.556 26.0607 247.374 26.8687 249.192 27.6263C250.404 28.1314 251.616 28.6364 252.778 29.1415L255.151 30.1516L255.354 30.2526C255.505 32.1213 255.657 33.9899 255.758 35.8586C255.859 37.3233 255.859 38.7879 255.909 40.2526V40.8081C255.909 40.9091 255.909 41.0101 255.859 41.1112C255.859 41.2122 255.808 41.3132 255.808 41.4142C255.758 41.5152 255.758 41.6162 255.707 41.7172C255.657 41.8182 255.606 41.8687 255.556 41.9697C255.505 42.0202 255.505 42.0202 255.455 42.0708C255.404 42.1213 255.354 42.1213 255.303 42.1718C255.202 42.2223 255.101 42.2728 254.949 42.2728C254.798 42.3233 254.646 42.3233 254.495 42.2728C254.394 42.2728 254.343 42.2223 254.242 42.2223C254.141 42.2223 254.04 42.1718 253.99 42.1213C253.788 42.0202 253.636 41.9697 253.434 41.8687C253.232 41.7677 253.03 41.6162 252.879 41.5152C252.677 41.3637 252.475 41.2122 252.273 41.0606C252.071 40.8586 251.869 40.7071 251.667 40.5051C251.263 40.0505 250.859 39.596 250.455 39.1415C249.747 38.2829 249.04 37.4748 248.434 36.5657C247.626 35.3031 246.768 34.091 245.96 32.8283C245.455 32.0708 245 31.3132 244.596 30.5051L242.778 26.8687L242.374 25.7071L242.273 25.3536L242.222 25V24.7475L242.172 24.798ZM262.374 56.9192C262.879 57.2223 263.384 57.5253 263.838 57.8788C264.444 58.2829 265.101 58.6869 265.707 59.1415C266.162 59.4445 266.566 59.798 266.97 60.1516C267.172 60.3031 267.323 60.4546 267.475 60.6566C267.626 60.8081 267.727 60.9596 267.828 61.1111V61.1617V61.2627C267.828 61.2627 267.828 61.3132 267.778 61.3132L267.727 61.3637C267.677 61.3637 267.677 61.3637 267.626 61.4142C267.576 61.4142 267.525 61.4142 267.475 61.4142C265.05 61.6162 262.677 61.7677 260.252 61.9697L250.859 62.7273H250.556L250.707 62.5758L251.313 62.0707C252.525 61.1617 253.687 60.2021 254.949 59.3435L260.252 55.7576L262.374 56.9192ZM269.596 38.4344C269.545 38.6364 269.444 38.7879 269.343 38.9394C269.192 39.1415 268.99 39.293 268.838 39.495C268.434 39.8485 268.081 40.2021 267.626 40.5051C266.111 41.5657 264.646 42.6263 263.131 43.6869C262.071 44.394 261.01 45.0505 259.949 45.7576L253.788 49.697L251.162 48.1819L240 41.8182C237.475 40.3031 234.949 38.8384 232.424 37.2728C231.97 36.9697 231.515 36.6667 231.061 36.3132C230.909 36.2122 230.808 36.1112 230.657 36.0101C230.606 35.9596 230.556 35.9596 230.505 35.9091C230.404 35.8081 230.303 35.7071 230.202 35.6566C230.101 35.5556 230 35.4041 229.949 35.2526C229.899 35.1516 229.899 35.1011 229.899 35C229.899 34.899 229.899 34.798 229.899 34.7475C229.949 34.5455 230 34.3435 230.101 34.192C230.354 33.7879 230.606 33.3839 230.96 33.0809C232.424 31.6162 233.889 30.1516 235.303 28.6364L239.192 24.6465L239.394 25.3031L239.848 26.4142L239.899 26.4647C240.909 28.2324 241.919 30.1011 242.98 31.8182C244.242 33.8384 245.606 35.8081 246.97 37.7273C247.626 38.6364 248.283 39.5455 248.99 40.4041C249.596 41.1617 250.252 41.9192 250.909 42.5758C251.515 43.1819 252.172 43.7374 252.828 44.293C253.182 44.5455 253.535 44.7475 253.889 45C254.242 45.2021 254.596 45.3536 254.949 45.4546C255.303 45.5556 255.657 45.6566 256.01 45.6566C256.414 45.7071 256.869 45.6566 257.273 45.5556C257.374 45.5051 257.525 45.5051 257.626 45.4546C257.727 45.4041 257.828 45.3536 257.929 45.3031C258.03 45.2526 258.131 45.2021 258.232 45.1011C258.384 45 258.535 44.8485 258.687 44.697C258.788 44.596 258.939 44.4445 259.04 44.293C259.192 44.1415 259.293 43.9394 259.394 43.7374C259.697 43.2324 259.949 42.7273 260.101 42.1718C260.303 41.5657 260.505 40.9596 260.606 40.3536C260.808 39.5455 261.01 38.6869 261.111 37.8788L261.616 33.0303C262.778 33.5859 263.939 34.0404 265.101 34.6465C266.212 35.2021 267.273 35.9091 268.333 36.5152C268.434 36.5657 268.586 36.6667 268.687 36.7677C268.838 36.9192 268.99 37.0202 269.141 37.1718C269.293 37.3233 269.394 37.5253 269.495 37.7273C269.545 37.8283 269.545 37.9293 269.596 38.0303V38.1819C269.646 38.3334 269.646 38.3839 269.596 38.4344V38.4344Z" fill="#E5E4F5"/>
</g>
<path d="M380.441 65.8806V62.1218V37.8418V34.083H372.314V37.8418V62.1218V65.8806H380.441Z" fill="#E5E4F5"/>
<path d="M451.453 50.0325C451.453 55.2136 450.03 59.2772 447.287 62.2233C444.443 65.1694 440.583 66.5917 435.605 66.5917C430.627 66.5917 426.665 65.1694 423.922 62.2233C421.077 59.2772 419.757 55.2136 419.757 50.0325C419.757 44.7499 421.179 40.6863 423.922 37.7402C426.665 34.7941 430.627 33.3718 435.706 33.3718C440.786 33.3718 444.646 34.7941 447.491 37.7402C450.132 40.5847 451.453 44.7499 451.453 50.0325ZM443.732 50.0325C443.732 46.6801 443.021 44.0387 441.598 42.1085C440.176 40.1783 438.144 39.1624 435.605 39.1624C432.963 39.1624 431.033 40.1783 429.611 42.1085C428.189 44.0387 427.477 46.6801 427.477 50.0325C427.477 53.385 428.189 55.9247 429.611 57.9565C431.033 59.8867 433.065 60.9026 435.605 60.9026C438.144 60.9026 440.176 59.8867 441.598 57.9565C443.021 55.9247 443.732 53.2834 443.732 50.0325Z" fill="#E5E4F5"/>
<path d="M469.028 56.9407L476.545 34.083H484.672L473.802 65.8806H464.355L453.484 34.083H461.612L469.028 56.9407Z" fill="#E5E4F5"/>
<path d="M343.158 65.3726V59.0741C346.714 60.1915 349.863 60.6995 352.606 60.6995C356.466 60.6995 358.295 59.6836 358.295 57.6518C358.295 56.9407 357.99 56.2295 357.482 55.7216C356.873 55.2136 355.45 54.4009 353.114 53.4866C348.949 51.7596 346.206 50.2357 344.885 49.0167C343.26 47.3912 342.447 45.3594 342.447 42.9213C342.447 39.772 343.666 37.3339 346.104 35.7084C348.441 34.083 351.59 33.2703 355.45 33.2703C357.584 33.2703 361.038 33.575 364.898 34.3878V39.9752C361.851 39.1625 358.904 38.6545 356.365 38.6545C352.809 38.6545 350.98 39.6704 350.98 41.6006C350.98 42.3117 351.387 42.9213 352.098 43.4292C352.707 43.8356 354.333 44.6483 357.076 45.8674C360.936 47.5944 363.578 49.1183 364.898 50.3373C366.422 51.8612 367.235 53.7914 367.235 56.2295C367.235 59.6836 365.711 62.3249 362.765 64.1535C360.327 65.6774 357.177 66.3885 353.317 66.3885C349.761 66.4901 346.51 66.1853 343.158 65.3726V65.3726Z" fill="#E5E4F5"/>
<path d="M386.537 65.8806V34.083H396.696L407.972 55.3153V34.083H414.271V65.8806H404.721L392.835 44.242V65.8806H386.537Z" fill="#E5E4F5"/>
<path d="M497.473 43.0229L490.057 65.8806H481.93L492.8 34.083H502.248L513.118 65.8806H504.99L497.473 43.0229Z" fill="#E5E4F5"/>
<path d="M540.852 59.6836C538.413 60.3947 534.655 60.8011 533.232 60.8011C529.88 60.8011 527.239 59.7852 525.308 57.855C523.277 55.9248 522.362 53.2834 522.362 50.0326C522.362 46.7817 523.378 44.242 525.308 42.2102C527.239 40.1784 529.778 39.1625 533.029 39.1625C534.35 39.1625 537.398 39.3657 540.953 40.5847V34.7941C540.14 34.4893 539.023 34.1846 537.804 33.9814C536.28 33.6766 534.553 33.4734 532.623 33.4734C527.137 33.4734 522.769 34.9973 519.518 38.045C516.267 41.0927 514.641 45.1563 514.641 50.3373C514.641 55.4168 516.267 59.4804 519.518 62.3249C522.769 65.271 527.137 66.6933 532.826 66.6933C534.553 66.6933 536.178 66.5917 537.702 66.2869C538.921 66.0837 540.039 65.8806 541.156 65.5758V59.6836H540.852Z" fill="#E5E4F5"/>
<path d="M620.327 43.1144C622.459 35.322 631.341 33.4676 639.519 33.2383C646.242 33.0501 653.737 33.9385 653.737 33.9385L650.215 46.8075C650.215 46.8075 642.72 45.9191 635.997 46.1075C627.819 46.3366 618.937 48.1912 616.805 55.9834L620.327 43.1144Z" fill="#E5E4F5"/>
<path d="M733.488 29.4132C722.722 29.4132 719.964 39.8265 718.42 45.4662L706.92 87.4791H713.63L723.826 50.2267H730.794L726.155 67.1775H732.864L738.428 46.8492H724.751C725.451 44.2869 726.199 41.5573 726.808 39.3317C727.933 35.2212 729.77 32.2364 732.443 32.3366C735.396 32.4475 733.893 34.3857 733.489 35.8635C732.929 37.9081 734.44 39.9639 737.087 39.9639C742.836 39.9639 744.254 29.4132 733.488 29.4132V29.4132ZM695.428 36.7647V36.7651L687.105 67.1777H694.099L697.181 55.9154H703.257C709.961 55.9154 714.41 52.2177 715.613 47.0775C716.737 42.278 713.932 36.7647 706.419 36.7647H695.428ZM701.443 40.3434H704.133C706.948 40.3434 709.182 42.596 708.643 46.5161C708.143 50.1499 704.194 52.3282 700.752 52.3282H698.163L701.443 40.3434ZM767.772 46.2336C761.89 46.2336 757.648 51.2901 756.63 56.3434C755.651 61.1994 758.438 67.6526 766.109 67.6526C771.562 67.6526 774.304 65.2532 774.304 65.2532L773.049 62.1571C773.049 62.1571 770.756 64.0218 767.563 64.0218C764.369 64.0218 762.365 61.5021 762.808 57.4868H775.851C776.783 55.1223 777.294 46.2336 767.772 46.2336V46.2336ZM793.77 46.5069C789.395 46.5069 786.816 51.0215 786.816 51.0215L787.958 46.8495H781.249L775.685 67.1777H782.394C782.394 67.1777 784.01 61.2384 784.832 58.2733C786.102 53.6382 788.69 50.7359 789.935 50.6171C791.373 50.4798 791.236 53.9436 794.041 53.9436C798.296 53.9436 799.214 46.5069 793.77 46.5069H793.77ZM740.956 46.8495L740.031 50.2272H748.536L735.166 67.1777H754.046L754.97 63.7998H745.377L758.746 46.8495H740.956ZM767.746 49.5901V49.5905C771.394 49.5905 770.564 54.4041 770.564 54.4041L763.256 54.3871C763.256 54.3871 764.468 49.5901 767.746 49.5901ZM671.36 67.225C647.3 65.7256 619.34 53.3224 620.327 43.1144L617.007 55.244C616 65.6591 641.937 78.0243 667.838 80.094L671.36 67.225Z" fill="#E5E4F5"/>
<path d="M680.104 50.5006C677.971 58.2932 669.089 60.1476 660.912 60.3766C654.189 60.565 646.693 59.6765 646.693 59.6765L650.215 46.8075C650.215 46.8075 657.711 47.6959 664.434 47.5076C672.611 47.2784 681.494 45.424 683.626 37.6316L680.104 50.5006Z" fill="#E5E4F5"/>
<path d="M629.07 26.3899C653.131 27.8893 681.091 40.2926 680.104 50.5007L683.424 38.3709C684.431 27.9558 658.494 15.5906 632.593 13.5209L629.07 26.3899Z" fill="#E5E4F5"/>
<g clip-path="url(#clip1_54_48)">
<path fill-rule="evenodd" clip-rule="evenodd" d="M1063.94 77.6124H1060.86C1060.15 77.6124 1059.78 78.1431 1059.78 79.1475C1059.78 80.0984 1060.15 80.6291 1060.86 80.6291H1072.7C1073.45 80.6291 1073.83 80.0984 1073.83 79.1475C1073.83 78.1431 1073.45 77.6124 1072.7 77.6124H1063.94Z" fill="#E5E4F5"/>
<path fill-rule="evenodd" clip-rule="evenodd" d="M1045.89 77.6124H1042.82C1042.12 77.6124 1041.7 78.1431 1041.7 79.1475C1041.7 80.0984 1042.12 80.6291 1042.82 80.6291H1054.64C1055.38 80.6291 1055.76 80.0984 1055.76 79.1475C1055.76 78.1431 1055.38 77.6124 1054.64 77.6124H1045.89Z" fill="#E5E4F5"/>
<path fill-rule="evenodd" clip-rule="evenodd" d="M1028.8 77.6124H1025.73C1024.97 77.6124 1024.64 78.1431 1024.64 79.1475C1024.64 80.0984 1024.97 80.6291 1025.73 80.6291H1037.56C1038.31 80.6291 1038.69 80.0984 1038.69 79.1475C1038.69 78.1431 1038.31 77.6124 1037.56 77.6124H1028.8Z" fill="#E5E4F5"/>
<path fill-rule="evenodd" clip-rule="evenodd" d="M1010.75 77.6124H1007.69C1006.94 77.6124 1006.56 78.1431 1006.56 79.1475C1006.56 80.0984 1006.94 80.6291 1007.69 80.6291H1019.49C1020.24 80.6291 1020.62 80.0984 1020.62 79.1475C1020.62 78.1431 1020.24 77.6124 1019.49 77.6124H1010.75Z" fill="#E5E4F5"/>
<path fill-rule="evenodd" clip-rule="evenodd" d="M992.685 77.6124H989.618C988.871 77.6124 988.49 78.1431 988.49 79.1475C988.49 80.0984 988.871 80.6291 989.618 80.6291H1001.42C1002.17 80.6291 1002.55 80.0984 1002.55 79.1475C1002.55 78.1431 1002.17 77.6124 1001.42 77.6124H992.685Z" fill="#E5E4F5"/>
<path fill-rule="evenodd" clip-rule="evenodd" d="M975.613 77.6124H972.553C971.799 77.6124 971.422 78.1431 971.422 79.1475C971.422 80.0984 971.799 80.6291 972.553 80.6291H984.35C985.104 80.6291 985.477 80.0984 985.477 79.1475C985.477 78.1431 985.104 77.6124 984.35 77.6124H975.613Z" fill="#E5E4F5"/>
<path fill-rule="evenodd" clip-rule="evenodd" d="M957.545 77.6124H954.482C953.731 77.6124 953.354 78.1431 953.354 79.1475C953.354 80.0984 953.731 80.6291 954.482 80.6291H966.282C967.068 80.6291 967.41 80.0984 967.41 79.1475C967.41 78.1431 967.068 77.6124 966.282 77.6124H957.545Z" fill="#E5E4F5"/>
<path fill-rule="evenodd" clip-rule="evenodd" d="M939.47 77.6124H936.411C935.656 77.6124 935.279 78.1431 935.279 79.1475C935.279 80.0984 935.656 80.6291 936.411 80.6291H948.246C948.961 80.6291 949.338 80.0984 949.338 79.1475C949.338 78.1431 948.961 77.6124 948.246 77.6124H939.47Z" fill="#E5E4F5"/>
<path fill-rule="evenodd" clip-rule="evenodd" d="M922.409 77.6124H919.335C918.588 77.6124 918.215 78.1431 918.215 79.1475C918.215 80.0984 918.588 80.6291 919.335 80.6291H931.142C931.889 80.6291 932.27 80.0984 932.27 79.1475C932.27 78.1431 931.893 77.6124 931.142 77.6124H922.409Z" fill="#E5E4F5"/>
<path fill-rule="evenodd" clip-rule="evenodd" d="M904.305 77.6124H901.267C900.52 77.6124 900.14 78.1431 900.14 79.1475C900.14 80.0984 900.517 80.6291 901.267 80.6291H913.071C913.821 80.6291 914.198 80.0984 914.198 79.1475C914.198 78.1431 913.821 77.6124 913.071 77.6124H904.305Z" fill="#E5E4F5"/>
<path fill-rule="evenodd" clip-rule="evenodd" d="M886.255 77.6124H883.196C882.442 77.6124 882.072 78.1431 882.072 79.1475C882.072 80.0984 882.442 80.6291 883.192 80.6291H895.003C895.75 80.6291 896.123 80.0984 896.123 79.1475C896.123 78.1431 895.753 77.6124 895.003 77.6124H886.255Z" fill="#E5E4F5"/>
<path fill-rule="evenodd" clip-rule="evenodd" d="M869.169 77.6124H866.096C865.345 77.6124 865 78.1431 865 79.1475C865 80.0984 865.345 80.6291 866.096 80.6291H877.935C878.682 80.6291 879.062 80.0984 879.062 79.1475C879.062 78.1431 878.682 77.6124 877.935 77.6124H869.169Z" fill="#E5E4F5"/>
<path fill-rule="evenodd" clip-rule="evenodd" d="M865 41.0765H868.216V45.4965C869.319 43.8475 870.457 42.6828 871.631 41.9277C873.152 40.9572 874.915 40.435 876.718 40.4211C877.917 40.4211 879.062 40.6598 880.165 41.1406C881.232 41.625 882.139 42.2696 882.805 43.0995C883.481 43.8867 884.082 45.0478 884.583 46.5294C885.651 44.542 886.992 43.0247 888.56 41.9633C890.093 40.9567 891.886 40.4206 893.719 40.4211C895.458 40.4211 896.963 40.8592 898.269 41.7532C899.574 42.6472 900.545 43.8902 901.214 45.4965C901.851 47.0779 902.15 49.4785 902.15 52.6342V66.5533H898.905V52.6342C898.905 49.9202 898.703 48.036 898.336 47.0067C897.958 45.9951 897.266 45.1314 896.362 44.542C895.458 43.9116 894.352 43.616 893.082 43.616C891.551 43.6172 890.061 44.1103 888.831 45.0228C887.557 45.9346 886.625 47.2062 886.02 48.7519C885.451 50.3333 885.149 52.9334 885.149 56.5806V66.5533H881.937V53.5282C881.937 50.4366 881.773 48.3495 881.403 47.2453C881.039 46.1786 880.348 45.2539 879.429 44.6026C878.454 43.9345 877.294 43.5884 876.113 43.6124C874.64 43.6124 873.271 44.0505 871.962 44.9837C870.692 45.8741 869.756 47.1064 869.116 48.6487C868.515 50.1944 868.216 52.5594 868.216 55.7507V66.5533H865V41.0765ZM921.246 43.6872C918.549 43.6872 916.258 44.6916 914.337 46.7396C912.42 48.7626 911.438 51.2273 911.438 54.1408C911.438 55.9858 911.879 57.7239 912.754 59.3587C913.629 60.9614 914.807 62.208 916.326 63.0735C917.809 63.9426 919.424 64.3914 921.246 64.3914C922.992 64.3914 924.646 63.9426 926.126 63.0735C927.641 62.1961 928.878 60.9085 929.694 59.3587C930.573 57.7239 931.014 55.9858 931.014 54.1408C931.014 51.2238 930.032 48.7626 928.118 46.7396C926.197 44.6916 923.906 43.6872 921.246 43.6872V43.6872ZM921.246 40.4211C925.084 40.4211 928.278 41.8814 930.815 44.7308C933.138 47.3664 934.28 50.458 934.28 54.0767C934.28 57.6598 933.06 60.8083 930.601 63.4903C928.175 66.2043 925.048 67.5613 921.246 67.5613C917.404 67.5613 914.27 66.2078 911.847 63.4903C909.449 60.9485 908.133 57.5727 908.176 54.0767C908.176 50.5007 909.321 47.4056 911.641 44.7664C914.17 41.8814 917.368 40.4211 921.246 40.4211V40.4211ZM952.536 43.7513C950.708 43.7513 949.061 44.2001 947.545 45.0941C946.008 46.0201 944.834 47.2667 943.927 48.93C943.049 50.5613 942.576 52.278 942.576 54.0767C942.576 55.911 943.049 57.6455 943.927 59.2696C944.834 60.9294 946.048 62.2116 947.57 63.1376C949.121 64.0281 950.74 64.5231 952.501 64.5231C954.254 64.5231 955.951 64.0316 957.531 63.1376C959.089 62.233 960.305 60.9864 961.181 59.4406C962.024 57.8841 962.426 56.1282 962.426 54.18C962.426 51.2166 961.487 48.727 959.551 46.7538C958.66 45.7853 957.575 45.017 956.365 44.4994C955.156 43.9819 953.851 43.7269 952.536 43.7513V43.7513ZM965.4 31.3708V66.9059H962.226V62.4859C960.994 64.0491 959.452 65.3405 957.698 66.2791C955.977 67.1291 954.082 67.568 952.163 67.5613C948.623 67.5613 945.574 66.2399 943.074 63.59C940.58 60.9614 939.299 57.7844 939.299 53.9805C939.299 50.3084 940.58 47.1314 943.113 44.5064C945.646 41.8814 948.68 40.5707 952.259 40.5707C954.322 40.5707 956.175 41.0124 957.833 41.9135C959.526 42.8075 960.981 44.1609 962.226 45.9631V31.3708H965.4ZM993.948 51.3627C993.514 49.5925 992.859 48.2106 992.041 47.1314C991.164 46.0242 990.026 45.1527 988.729 44.5954C987.394 43.9385 985.926 43.6019 984.439 43.6124C981.952 43.6124 979.846 44.4174 978.035 46.0486C976.748 47.2311 975.752 49.0048 975.076 51.3627H993.948ZM993.948 58.3115L996.672 59.8075C995.895 61.4217 994.849 62.8912 993.578 64.1527C992.414 65.238 991.061 66.1 989.586 66.6958C988.128 67.2443 986.449 67.5613 984.574 67.5613C980.458 67.5613 977.221 66.1651 974.898 63.4297C972.578 60.6516 971.422 57.5458 971.422 54.0767C971.422 50.775 972.379 47.858 974.361 45.322C976.869 42.0524 980.223 40.4211 984.414 40.4211C988.704 40.4211 992.144 42.0916 994.73 45.4182C996.569 47.7832 997.487 50.7109 997.526 54.2512H974.759C974.841 57.243 975.752 59.7077 977.584 61.6168C978.437 62.5447 979.476 63.2817 980.634 63.7795C981.791 64.2772 983.04 64.5246 984.3 64.5053C985.605 64.5053 986.822 64.256 988.049 63.8037C989.28 63.3549 990.298 62.7352 991.155 61.9943C992.044 61.2428 992.959 60.0212 993.948 58.3115V58.3115ZM1002.55 41.0765H1005.93V44.8056C1006.92 43.3382 1008.01 42.2412 1009.12 41.511C1010.28 40.7987 1011.42 40.4211 1012.63 40.4211C1013.58 40.4211 1014.56 40.7381 1015.6 41.2759L1013.85 44.0505C1013.31 43.792 1012.72 43.6431 1012.12 43.6124C1011 43.6124 1009.92 44.0505 1008.92 44.9445C1007.86 45.8349 1007.1 47.2453 1006.55 49.1295C1006.14 50.572 1005.93 53.5282 1005.93 57.9483V66.5533H1002.55V41.0765ZM1019.62 41.0765H1022.71V45.6355C1023.94 43.8902 1025.35 42.5831 1026.84 41.7283C1028.34 40.861 1030.04 40.4098 1031.77 40.4211C1033.59 40.4211 1035.19 40.8984 1036.59 41.8672C1037.98 42.8573 1039.04 44.1609 1039.7 45.7708C1040.37 47.4199 1040.69 49.9594 1040.69 53.4498V66.5569H1037.6V54.4115C1037.6 51.4624 1037.47 49.4963 1037.24 48.5062C1036.88 46.8251 1036.21 45.5571 1035.16 44.7023C1034.15 43.8831 1032.82 43.4343 1031.15 43.4343C1029.29 43.4343 1027.6 44.0861 1026.1 45.3933C1024.6 46.7253 1023.62 48.3459 1023.16 50.255C1022.88 51.5265 1022.72 53.863 1022.72 57.1896V66.5498H1019.62V41.0765ZM1059.96 43.616C1058.17 43.616 1056.51 44.0647 1054.97 44.9694C1053.44 45.9074 1052.19 47.2397 1051.35 48.8267C1050.47 50.458 1049.99 52.2104 1049.99 54.0019C1049.99 55.8504 1050.47 57.585 1051.35 59.2162C1052.26 60.8902 1053.47 62.1724 1054.99 63.1127C1056.55 64.0174 1058.17 64.5053 1059.92 64.5053C1061.68 64.5053 1063.37 64.0174 1064.96 63.1163C1066.51 62.2116 1067.73 60.9614 1068.61 59.3943C1069.45 57.8378 1069.85 56.0641 1069.85 54.1159C1069.85 51.124 1068.91 48.6237 1067.02 46.6399C1066.12 45.6681 1065.03 44.8964 1063.81 44.3748C1062.6 43.8532 1061.28 43.5935 1059.96 43.6124V43.616ZM1072.83 41.0872V66.8988H1069.65V62.4467C1068.3 64.1563 1066.77 65.41 1065.12 66.2791C1063.4 67.1291 1061.5 67.568 1059.58 67.5613C1056.04 67.5613 1053 66.2399 1050.5 63.565C1048 60.9294 1046.72 57.7239 1046.72 53.8986C1046.72 50.2194 1048 47.0174 1050.53 44.3782C1053.07 41.739 1056.11 40.4247 1059.69 40.4247C1061.74 40.4247 1063.6 40.8735 1065.25 41.7781C1066.95 42.6792 1068.41 44.0398 1069.65 45.8385V41.08L1072.83 41.0872ZM1078.32 43.2954H1078.72C1078.94 43.2954 1079.08 43.2954 1079.14 43.2206C1079.18 43.198 1079.22 43.164 1079.24 43.1224C1079.26 43.0809 1079.28 43.0335 1079.27 42.9856C1079.27 42.9217 1079.25 42.8604 1079.21 42.8075C1079.18 42.7513 1079.13 42.7046 1079.08 42.6721C1079 42.6721 1078.86 42.6472 1078.7 42.6472H1078.32V43.2954ZM1077.97 44.542V42.3551H1078.7C1078.97 42.3551 1079.14 42.3551 1079.27 42.3943C1079.37 42.4691 1079.49 42.5332 1079.55 42.6436C1079.62 42.7296 1079.66 42.8368 1079.65 42.9464C1079.65 43.0233 1079.64 43.0999 1079.61 43.1715C1079.58 43.2431 1079.54 43.3083 1079.49 43.3631C1079.35 43.478 1079.18 43.552 1079 43.5768C1079.11 43.6124 1079.14 43.6516 1079.21 43.6765C1079.27 43.7905 1079.37 43.9258 1079.51 44.1289L1079.79 44.542H1079.35L1079.17 44.2001C1079 43.9258 1078.9 43.7513 1078.8 43.6765C1078.72 43.6516 1078.62 43.6124 1078.52 43.6124H1078.32V44.5385L1077.97 44.542ZM1078.83 41.7033C1078.54 41.7058 1078.25 41.787 1078 41.9384C1077.74 42.0763 1077.52 42.2976 1077.39 42.5688C1077.23 42.8273 1077.15 43.1285 1077.15 43.4343C1077.15 43.7284 1077.23 44.017 1077.39 44.2642C1077.52 44.5363 1077.74 44.7581 1078 44.8946C1078.29 45.0727 1078.56 45.1333 1078.83 45.1333C1079.14 45.1413 1079.43 45.0582 1079.69 44.8946C1079.96 44.7602 1080.18 44.5381 1080.31 44.2642C1080.45 44.0093 1080.53 43.7253 1080.54 43.4343C1080.53 43.1314 1080.45 42.8349 1080.31 42.5688C1080.16 42.3043 1079.95 42.0857 1079.69 41.9384C1079.43 41.7823 1079.13 41.7009 1078.83 41.7033V41.7033ZM1078.83 41.422C1079.18 41.4253 1079.51 41.4993 1079.83 41.6392C1080.15 41.8051 1080.41 42.0693 1080.58 42.3943C1080.79 42.7077 1080.85 43.0568 1080.85 43.4343C1080.85 43.7905 1080.8 44.1289 1080.62 44.4423C1080.43 44.7504 1080.17 45.012 1079.87 45.2081C1079.55 45.3634 1079.2 45.4442 1078.85 45.4442C1078.49 45.4442 1078.15 45.3634 1077.83 45.2081C1077.53 45.0115 1077.27 44.7499 1077.08 44.4423C1076.92 44.1333 1076.83 43.7857 1076.84 43.4343C1076.84 43.0568 1076.91 42.7077 1077.08 42.3943C1077.27 42.0866 1077.52 41.8277 1077.83 41.6392C1078.15 41.5066 1078.49 41.4341 1078.83 41.4255V41.422Z" fill="#E5E4F5"/>
</g>
<defs>
<clipPath id="clip0_54_48">
<rect width="280.354" height="70" fill="white"/>
</clipPath>
<clipPath id="clip1_54_48">
<rect width="216" height="50" fill="white" transform="translate(865 31)"/>
</clipPath>
</defs>
</svg>
